<svg fill="none" height="27" viewBox="0 0 119 27" width="119" xmlns="http://www.w3.org/2000/svg"><g fill="#fff"><path d="m6.2048 20.5483c-.17564-.0012-.31843-.142-.3221-.3176l.17518-9.8328-.1458-8.11254h-5.589973c-.176946-.00122-.32026158-.14404-.322107-.32098v-1.580017c.00123187-.177382.144725-.3208753.322107-.3221071h14.014493c.1774.0012318.3209.1447251.3221.3221071v1.582277c-.0018.17695-.1452.31976-.3221.32098h-5.58545l-.14693 8.11028.17631 9.8328c-.00123.1774-.14472.3209-.3221.3221z"/><path clip-rule="evenodd" d="m23.0448 20.2306c.0037.1756.1465.3164.3221.3176l2.0491.0011c.1769-.0018.3197-.1451.3209-.3221l-.113-7.3463.113-7.08297c-.0012-.17694-.144-.32026-.3209-.3221h-2.0491c-.1771.00183-.3203.14498-.3221.3221l.0588 1.98464c-.9957-1.6953-2.6345-2.59946-4.7706-2.59946-3.9794 0-6.2624 3.51718-6.2624 7.87749 0 4.3603 2.1643 7.7848 6.233 7.7848 2.1655 0 3.8043-1.0239 4.8-2.7509zm.1469-7.0864c-.0587 3.8042-1.6399 5.7357-4.2145 5.7357-2.8684 0-4.2145-2.4288-4.2202-6.0284 0-3.27876 1.2625-5.56064 3.9557-5.70757.2641-.00546.5283.00435.7912.02939 2.37.23395 3.7161 2.39942 3.6878 5.97088z" fill-rule="evenodd"/><path d="m29.4361 20.5483c-.1757-.0012-.3184-.142-.3221-.3176l.113-10.0373-.113-9.804516c-.0006-.086028.033-.168772.0934-.230027.0604-.0612551.1427-.0960037.2287-.0966011h2.0479c.1774.0012318.3209.1447251.3221.3221071l-.113 9.775137.113 10.0667c-.0012.1774-.1447.3209-.3221.3221z"/><path clip-rule="evenodd" d="m49.1807 21.6899c.2633 3.1905 3.0142 4.653 6.467 4.5954 4.3321 0 6.7326-2.4299 6.7066-6.7597l-.0587-8.0245.0881-5.70749c-.0018-.17713-.145-.32027-.3221-.32211h-2.0197c-.1771.00184-.3202.14498-.3221.32211l.0588 2.04905c-.9957-1.70095-2.6051-2.60511-4.7118-2.60511-4.0393 0-6.3224 3.45389-6.3224 7.72605 0 4.3027 2.196 7.4932 6.4094 7.4932 2.1045 0 3.7139-.9618 4.6802-2.6299v1.6681c0 3.3952-1.5518 4.8294-4.1275 4.8294-2.0773 0-3.5997-.8194-3.8924-2.6345-.0186-.1925-.1869-.3352-.3798-.3221h-1.9609c-.0838-.0031-.1647.031-.2211.0931-.0565.062-.0826.1458-.0716.229zm10.6533-8.6048c-.0294 3.7173-1.6117 5.4725-4.0981 5.4725-2.8685.0294-4.331-2.0479-4.3355-5.677 0-3.3635 1.3212-5.58999 3.9557-5.73692.2539-.00544.5079.00437.7607.02939 2.3994.23395 3.7466 2.37116 3.7172 5.91203z" fill-rule="evenodd"/><path d="m69.99 20.8997c-3.1036 0-5.0351-2.0491-5.0351-6.0003v-2.9848l-.0881-6.11666c.0018-.17713.1449-.32027.3221-.32211h2.0784c.1761.00306.3175.14603.3187.32211l-.0881 6.11666v2.8978c0 2.7215 1.3167 3.9557 3.2199 3.9557 1.9609 0 3.5703-1.5823 4.1558-4.566v-2.283l-.0543-6.12116c.0018-.17713.145-.32027.3221-.32211h2.1067c.1774.00123.3209.14473.3221.32211l-.113 6.55516.087 7.8719c-.0012.1773-.1447.3208-.3221.3221h-1.9654c-.1761 0-.3201-.1404-.3244-.3165l.0588-2.2525c-.9042 1.5461-2.6017 2.9216-5.0011 2.9216z"/><path clip-rule="evenodd" d="m93.7513 15.4064c-.0515-.0628-.129-.0985-.2102-.097h-1.9021c-.1897-.0037-.3525.1344-.3798.3221-.469 2.1655-1.8139 3.307-4.0099 3.307-2.9544 0-4.4485-1.9315-4.5367-5.5606h11.0342c.1769-.0019.3198-.1452.321-.3221-.1164-4.94579-2.6323-7.93178-6.9937-7.93178-4.3615 0-7.0536 3.21995-7.0536 7.93178 0 4.5954 2.4876 7.8436 7.1994 7.8436 3.8336 0 6.1166-2.2243 6.5857-5.2679.0173-.0794-.0027-.1623-.0543-.2251zm-10.9505-3.8988c.3809-2.83905 1.8151-4.44845 4.2733-4.44845v-.00226c2.6921 0 4.0382 2.04792 4.1264 4.45071z" fill-rule="evenodd"/><path d="m102.941 20.9089c-3.9218 0-6.6433-1.7269-6.8185-5.2384.0018-.1772.145-.3203.3221-.3222h1.9315c.1771.0019.3203.145.3221.3222.113 2.3417 1.5828 3.3906 4.2428 3.3906 2.225 0 3.688-.937 3.688-2.6052 0-3.95-10.155-.7606-10.155-6.84785 0-2.89783 2.3734-4.41909 5.94-4.41909 3.484 0 6.03 1.46249 6.264 4.5355.015.0849-.009.17208-.066.23709-.056.06505-.14.10085-.226.09745h-1.845c-.184.0011-.336-.13946-.351-.32211-.204-1.84787-1.668-2.72943-3.805-2.72943-2.048 0-3.3658.76062-3.3658 2.4288 0 3.74664 10.1558.49729 10.1558 6.81964.002 2.9577-2.721 4.653-6.234 4.653z"/><path d="m118.971 20.0509c-.015.1892-.142.351-.322.4102-.585.1752-1.288.3504-1.961.3504-2.195 0-4.069-1.1415-4.069-4.4191l.029-8.83816h-1.639c-.176-.00184-.319-.14447-.32-.32098v-1.43535c.001-.17739.144-.32088.322-.32211h1.638l-.058-3.45276c.001-.17739.144-.32088.322-.32211h2.077c.177.00123.321.14472.322.32211l-.059 3.45276h3.425c.177.00123.321.14472.322.32211v1.43535c-.001.17738-.145.32088-.322.32211h-3.425l.03 8.78053c0 1.814.615 2.3734 1.874 2.3734.503.0083 1.004-.051 1.492-.1763.074-.0181.153-.0025.215.0428s.101.1157.107.1923z"/><path d="m47.1463 20.2864-5.5312-9.3072 4.9175-5.26789c.0405-.03682.0547-.09451.0358-.14589-.0188-.05139-.067-.08621-.1217-.08807h-2.4322c-.2013-.00265-.3937.08282-.5266.23396l-1.5394 1.6953s0 .00904-.0079.01243l-4.1275 4.56146-.7357.8149-1.866 1.9089v5.5211c0 .1778.1432.3225.321.3243h2.0468c.177-.0036.3191-.1473.3209-.3243l-.0576-5.2385 1.8716-2.1022 3.1894 5.2385 1.1743 2.1349c.087.1774.2669.2904.4645.2916h2.4605c.0647.0055.1265-.0278.1576-.0849.0311-.057.0256-.127-.0141-.1784z"/><path d="m35.2057 11.536 2.6368-2.88657.0576-8.328453c-.003-.176005-.1449-.31795739-.3209-.320977h-2.0491c-.1767.00123181-.3197.144219-.321.320977"/></g></svg>