<svg xmlns="http://www.w3.org/2000/svg" width="924" height="244" viewBox="0 0 924 244" fill="none"><path d="M290 70.1476H332.956C343.943 70.1476 352.476 72.8219 358.557 78.1707C364.637 83.5195 367.68 91.1062 367.68 100.925C367.68 110.651 364.637 118.231 358.557 123.678C352.482 129.126 343.943 131.849 332.956 131.849H305.155V172.979H290V70.1476ZM331.345 119.744C345.861 119.744 353.116 113.473 353.116 100.931C353.116 88.481 345.861 82.2592 331.345 82.2592H305.155V119.744H331.345ZM427.851 112.446L418.875 113.319C411.811 114.001 406.739 116.141 403.652 119.738C400.56 123.334 399.017 127.908 399.017 133.448V172.973H384.163V101.798H398.574V114.198C402.404 105.837 410.194 101.22 421.967 100.341L426.818 100.052L427.851 112.446ZM438.001 101.798H452.861V172.979H438.001V101.798ZM454.042 70V85.3147H436.975V70H454.042ZM505.089 174C497.828 174 491.532 172.494 486.183 169.481C480.835 166.469 476.722 162.214 473.826 156.718C470.93 151.222 469.479 144.785 469.479 137.395C469.479 130.005 470.973 123.488 473.967 117.85C476.955 112.212 481.173 107.835 486.62 104.724C492.061 101.613 498.412 100.058 505.673 100.058C510.671 100.058 515.503 100.882 520.157 102.535C524.818 104.189 528.617 106.427 531.562 109.243L527 119.744C520.526 114.493 513.813 111.868 506.853 111.868C499.986 111.868 494.612 114.081 490.739 118.508C486.866 122.934 484.929 129.181 484.929 137.253C484.929 145.227 486.841 151.375 490.665 155.703C494.489 160.032 499.887 162.196 506.853 162.196C513.813 162.196 520.532 159.571 527 154.32L531.562 164.969C528.427 167.79 524.498 169.998 519.795 171.602C515.091 173.201 510.185 174 505.089 174ZM606.156 139.872H555.404C556.48 154.947 564.036 162.479 578.06 162.479C586.298 162.479 593.755 159.804 600.426 154.455L604.988 164.809C601.65 167.631 597.537 169.869 592.63 171.516C587.724 173.17 582.726 173.994 577.629 173.994C566.151 173.994 557.107 170.735 550.486 164.218C543.864 157.702 540.55 148.707 540.55 137.235C540.55 129.943 542.001 123.476 544.897 117.838C547.793 112.2 551.857 107.823 557.107 104.712C562.351 101.601 568.309 100.045 574.979 100.045C584.687 100.045 592.317 103.156 597.856 109.378C603.402 115.6 606.168 124.207 606.168 135.194V139.872H606.156ZM575.262 110.841C569.569 110.841 565.038 112.618 561.65 116.166C558.269 119.713 556.228 124.797 555.545 131.406H593.356C593.061 124.791 591.37 119.713 588.284 116.166C585.191 112.618 580.851 110.841 575.262 110.841Z" fill="#FF4647"></path><path d="M731.038 99.9447C740.667 99.9447 747.814 102.333 752.475 107.105C757.141 111.876 759.474 119.128 759.474 128.867V172.978H745.185V161.145C743.32 165.332 740.543 168.521 736.868 170.712C733.18 172.904 728.883 174 723.977 174C719.261 174 714.939 173.052 711.011 171.15C707.083 169.253 704.011 166.6 701.801 163.189C699.591 159.779 698.483 155.986 698.483 151.794C698.483 146.635 699.837 142.565 702.54 139.598C705.237 136.631 709.706 134.513 715.949 133.245C722.179 131.976 730.749 131.348 741.658 131.348H745.044V127.113C745.044 121.658 743.893 117.718 741.584 115.28C739.275 112.849 735.514 111.63 730.318 111.63C722.16 111.63 714.016 114.111 705.858 119.079L701.438 108.705C705.267 106.076 709.909 103.959 715.358 102.352C720.8 100.745 726.027 99.9447 731.038 99.9447ZM794.683 70V113.378C796.844 109.093 799.983 105.781 804.108 103.448C808.233 101.108 812.992 99.9447 818.397 99.9447C824.683 99.9447 830.23 101.453 835.044 104.47C839.858 107.486 843.614 111.771 846.317 117.324C849.013 122.877 850.367 129.348 850.367 136.748C850.367 144.049 849.019 150.526 846.317 156.171C843.614 161.816 839.834 166.2 834.97 169.315C830.113 172.43 824.584 173.988 818.397 173.988C812.992 173.988 808.227 172.843 804.108 170.559C799.983 168.268 796.844 164.981 794.683 160.702V172.972H779.803V70H794.683ZM893.382 99.9447C898.492 99.9447 903.349 100.751 907.967 102.352C912.584 103.959 916.561 106.224 919.898 109.142L915.33 119.51C908.256 113.957 900.942 111.186 893.376 111.186C888.863 111.186 885.299 112.06 882.695 113.815C880.09 115.57 878.792 117.952 878.792 120.975C878.792 123.407 879.598 125.383 881.217 126.891C882.836 128.4 885.422 129.545 888.95 130.32L901.176 133.097C908.151 134.654 913.255 137.062 916.499 140.325C919.738 143.587 921.357 147.848 921.357 153.105C921.357 159.532 918.728 164.618 913.477 168.367C908.225 172.116 901.127 173.988 892.188 173.988C879.715 173.988 869.748 170.971 862.286 164.932L866.854 154.269C874.223 159.914 882.818 162.74 892.637 162.74C897.452 162.74 901.133 161.933 903.688 160.333C906.243 158.726 907.517 156.46 907.517 153.542C907.517 151.012 906.662 149.017 904.944 147.552C903.22 146.093 900.253 144.874 896.029 143.901L884.098 141.273C877.714 139.814 872.9 137.425 869.662 134.113C866.417 130.801 864.804 126.614 864.804 121.554C864.804 115.126 867.427 109.918 872.684 105.923C877.936 101.939 884.837 99.9447 893.382 99.9447ZM637.344 70V160.413H687.728V172.972H622.168V70H637.344ZM742.384 139.672C734.726 139.672 728.828 140.011 724.703 140.694C720.578 141.377 717.636 142.522 715.869 144.129C714.102 145.736 713.215 148.051 713.215 151.067C713.215 154.478 714.471 157.322 716.977 159.612C719.476 161.903 722.696 163.048 726.624 163.048C732.029 163.048 736.443 161.219 739.885 157.569C743.32 153.918 745.038 149.221 745.038 143.477V139.672H742.384ZM814.857 111.771C808.375 111.771 803.394 113.963 799.91 118.346C796.419 122.73 794.683 128.96 794.683 137.043C794.683 145.126 796.425 151.357 799.91 155.74C803.4 160.123 808.375 162.315 814.857 162.315C821.242 162.315 826.228 160.074 829.811 155.599C833.394 151.117 835.186 144.837 835.186 136.754C835.186 128.769 833.425 122.613 829.885 118.278C826.357 113.938 821.34 111.771 814.857 111.771Z" fill="#333333"></path><path d="M121.997 242C188.269 242 242 188.273 242 122C242 55.7272 188.275 2 121.997 2C55.7185 2 2 55.7272 2 122C2 188.273 55.7246 242 121.997 242Z" fill="#FF4647"></path><path d="M45 121.746L98.7455 68.0001L115.745 85.0001L79 121.746L115.745 158.491L98.7455 175.491L45 121.746Z" fill="white"></path><path d="M198.746 121.745L145 175.491L128 158.491L164.746 121.745L128 85L145 68L198.746 121.745Z" fill="white"></path></svg>